<svg width="16" height="8" viewBox="0 0 16 8" fill="none" xmlns="http://www.w3.org/2000/svg">
<g clip-path="url(#clip0_153_1008)">
<path d="M11.2372 1.61079C10.9357 1.62667 10.6817 1.74174 10.4754 1.95602C10.277 2.17029 10.1341 2.41631 10.0468 2.69407C9.95953 2.9639 9.91587 3.24168 9.91587 3.52738C9.91587 3.81309 9.95556 4.09481 10.0349 4.37257C10.1222 4.65035 10.269 4.89637 10.4754 5.11065C10.6817 5.31699 10.9357 5.4281 11.2372 5.44396H15.1656C15.6656 5.49159 15.9394 5.76538 15.987 6.26535C15.9791 6.48757 15.8958 6.67407 15.737 6.82486C15.5783 6.96771 15.3879 7.03913 15.1656 7.03913H11.3682H10.8206C10.2651 7.00739 9.80874 6.79708 9.45161 6.4082C9.09448 6.0114 8.83655 5.56301 8.67783 5.06302C8.52704 4.56305 8.45166 4.05117 8.45166 3.52738C8.45166 3.1385 8.4953 2.75359 8.5826 2.37267C8.6699 1.99173 8.8048 1.63064 8.98733 1.28938C9.17782 0.940189 9.4278 0.642583 9.7373 0.396562C10.0548 0.15054 10.4159 0.0235613 10.8206 0.015625H11.0468H15.1656C15.6656 0.063242 15.9394 0.33704 15.987 0.837017C15.987 1.05923 15.9037 1.24573 15.737 1.39652C15.5783 1.53937 15.3879 1.61079 15.1656 1.61079H11.2372Z" fill="#141932"/>
<path d="M0.802039 7.18198C0.587761 7.17405 0.405229 7.09865 0.254442 6.95579C0.103655 6.80501 0.0242935 6.62248 0.0163574 6.4082V3.44404C0.0242935 2.88059 0.103655 2.34886 0.254442 1.84888C0.413166 1.3489 0.671091 0.928284 1.02822 0.587029C1.39328 0.237838 1.85358 0.0473697 2.40911 0.015625H7.00415C7.21843 0.0235613 7.39699 0.102923 7.53985 0.25371C7.69063 0.396561 7.77 0.575124 7.77793 0.789402C7.77793 1.01161 7.70253 1.20208 7.55174 1.36081C7.40891 1.51953 7.22636 1.60286 7.00415 1.61079H2.81385C2.51227 1.62667 2.26229 1.74174 2.06388 1.95602C1.86548 2.17029 1.73851 2.41631 1.68295 2.69407C1.63533 2.9639 1.6155 3.26151 1.62343 3.5869V6.4082C1.6155 6.63043 1.53217 6.81692 1.37344 6.96771C1.21472 7.11057 1.02425 7.18198 0.802039 7.18198ZM2.18292 4.05117C2.18292 3.82895 2.26229 3.64245 2.42101 3.49167C2.5718 3.33295 2.75831 3.25358 2.98052 3.25358H7.00415C7.22636 3.25358 7.41287 3.33295 7.56366 3.49167C7.72238 3.64245 7.80174 3.82895 7.80174 4.05117C7.80174 4.27338 7.72634 4.46384 7.57555 4.62258C7.41684 4.77336 7.22636 4.84875 7.00415 4.84875H2.98052C2.75831 4.84875 2.56783 4.77336 2.40911 4.62258C2.25833 4.46384 2.18292 4.27338 2.18292 4.05117Z" fill="#141932"/>
</g>
<defs>
<clipPath id="clip0_153_1008">
<rect width="16" height="7.20099" fill="white"/>
</clipPath>
</defs>
</svg>
