<svg width="16" height="16" viewBox="0 0 16 16" fill="none" xmlns="http://www.w3.org/2000/svg">
<g clip-path="url(#clip0_165_1136)">
<path d="M19 -5H21L13 11H11L19 -5Z" fill="#5F9EA0"/>
<g clip-path="url(#clip1_165_1136)">
<path d="M11.2372 6.0107C10.9357 6.02657 10.6817 6.14164 10.4754 6.35592C10.277 6.5702 10.1341 6.81621 10.0468 7.09398C9.95953 7.3638 9.91587 7.64159 9.91587 7.92728C9.91587 8.21299 9.95556 8.49472 10.0349 8.77248C10.1222 9.05026 10.269 9.29627 10.4754 9.51055C10.6817 9.71689 10.9357 9.828 11.2372 9.84386H15.1656C15.6656 9.89149 15.9394 10.1653 15.987 10.6653C15.9791 10.8875 15.8958 11.074 15.737 11.2248C15.5783 11.3676 15.3879 11.439 15.1656 11.439H11.3682H10.8206C10.2651 11.4073 9.80874 11.197 9.45161 10.8081C9.09448 10.4113 8.83655 9.96291 8.67783 9.46292C8.52704 8.96296 8.45166 8.45108 8.45166 7.92728C8.45166 7.5384 8.4953 7.1535 8.5826 6.77257C8.6699 6.39163 8.8048 6.03054 8.98733 5.68928C9.17782 5.34009 9.4278 5.04249 9.7373 4.79646C10.0548 4.55044 10.4159 4.42346 10.8206 4.41553H11.0468H15.1656C15.6656 4.46314 15.9394 4.73694 15.987 5.23692C15.987 5.45913 15.9037 5.64563 15.737 5.79642C15.5783 5.93927 15.3879 6.0107 15.1656 6.0107H11.2372Z" fill="#141932"/>
<path d="M0.802039 11.5819C0.587761 11.574 0.405229 11.4986 0.254442 11.3557C0.103655 11.2049 0.0242935 11.0224 0.0163574 10.8081V7.84394C0.0242935 7.28049 0.103655 6.74876 0.254442 6.24878C0.413166 5.7488 0.671091 5.32819 1.02822 4.98693C1.39328 4.63774 1.85358 4.44727 2.40911 4.41553H7.00415C7.21843 4.42346 7.39699 4.50283 7.53985 4.65361C7.69063 4.79646 7.77 4.97503 7.77793 5.1893C7.77793 5.41152 7.70253 5.60198 7.55174 5.76071C7.40891 5.91943 7.22636 6.00276 7.00415 6.0107H2.81385C2.51228 6.02657 2.26229 6.14164 2.06388 6.35592C1.86548 6.5702 1.73851 6.81621 1.68295 7.09398C1.63533 7.36381 1.6155 7.66141 1.62343 7.9868V10.8081C1.6155 11.0303 1.53217 11.2168 1.37344 11.3676C1.21472 11.5105 1.02425 11.5819 0.802039 11.5819ZM2.18292 8.45108C2.18292 8.22885 2.26229 8.04236 2.42101 7.89157C2.5718 7.73285 2.75831 7.65348 2.98052 7.65348H7.00415C7.22636 7.65348 7.41287 7.73285 7.56366 7.89157C7.72238 8.04236 7.80175 8.22885 7.80175 8.45108C7.80175 8.67328 7.72634 8.86374 7.57556 9.02248C7.41684 9.17327 7.22636 9.24865 7.00415 9.24865H2.98052C2.75831 9.24865 2.56783 9.17327 2.40911 9.02248C2.25833 8.86374 2.18292 8.67328 2.18292 8.45108Z" fill="#141932"/>
<circle cx="11.5" cy="7.5" r="0.5" fill="#FF5733"/>
</g>
<path d="M12 9H14L6 25H4L12 9Z" fill="#5F9EA0"/>
</g>
<defs>
<clipPath id="clip0_165_1136">
<rect width="16" height="16" fill="white"/>
</clipPath>
<clipPath id="clip1_165_1136">
<rect width="16" height="7.20099" fill="white" transform="translate(0 4.3999)"/>
</clipPath>
</defs>
</svg>
