<svg width="171" height="21" viewBox="0 0 171 21" fill="none" xmlns="http://www.w3.org/2000/svg">
<path d="M2.3034 20.326C1.71657 20.3043 1.21668 20.0978 0.803732 19.7066C0.390779 19.2936 0.173435 18.7937 0.151701 18.2069V10.0891C0.173435 8.546 0.390779 7.08979 0.803732 5.72053C1.23842 4.35126 1.94479 3.19934 2.92283 2.26477C3.92261 1.30846 5.1832 0.786831 6.70461 0.699893H19.2888C19.8756 0.721628 20.3647 0.938971 20.7559 1.35192C21.1688 1.74314 21.3862 2.23217 21.4079 2.81899C21.4079 3.42755 21.2014 3.94918 20.7885 4.38387C20.3973 4.81855 19.8974 5.04676 19.2888 5.0685H7.81306C6.98716 5.11197 6.30252 5.42712 5.75916 6.01394C5.21581 6.60077 4.86806 7.27454 4.71592 8.03524C4.58551 8.77421 4.53117 9.58924 4.55291 10.4804V18.2069C4.53117 18.8155 4.30296 19.3262 3.86828 19.7392C3.43359 20.1304 2.91196 20.326 2.3034 20.326ZM6.08518 11.7518C6.08518 11.1433 6.30252 10.6325 6.73721 10.2195C7.15016 9.78485 7.66092 9.56751 8.26948 9.56751H19.2888C19.8974 9.56751 20.4081 9.78485 20.8211 10.2195C21.2558 10.6325 21.4731 11.1433 21.4731 11.7518C21.4731 12.3604 21.2666 12.882 20.8537 13.3167C20.419 13.7296 19.8974 13.9361 19.2888 13.9361H8.26948C7.66092 13.9361 7.1393 13.7296 6.70461 13.3167C6.29166 12.882 6.08518 12.3604 6.08518 11.7518ZM30.5207 19.9348C28.6081 19.8696 27.1627 19.424 26.1847 18.5981C25.2066 17.7505 24.5003 16.805 24.0656 15.7618C23.6309 14.6968 23.4135 13.621 23.4135 12.5342C23.4135 11.4041 23.62 10.3173 24.033 9.2741C24.4677 8.20911 25.174 7.26367 26.1521 6.43776C27.1519 5.59012 28.4124 5.15544 29.9339 5.1337H40.4967C42.0182 5.15544 43.2679 5.59012 44.2459 6.43776C45.2457 7.26367 45.9521 8.20911 46.365 9.2741C46.7997 10.3173 47.0171 11.4041 47.0171 12.5342C47.0171 13.621 46.7997 14.6968 46.365 15.7618C45.9303 16.805 45.224 17.7505 44.2459 18.5981C43.2679 19.424 41.8225 19.8696 39.9099 19.9348H30.5207ZM29.8034 9.50231C29.3905 9.50231 29.0319 9.67618 28.7276 10.0239C28.4233 10.3499 28.1951 10.7412 28.043 11.1976C27.9126 11.6323 27.8474 12.067 27.8474 12.5016C27.8474 12.9581 27.9126 13.4145 28.043 13.8709C28.1951 14.3056 28.4233 14.6968 28.7276 15.0446C29.0319 15.3706 29.3905 15.5445 29.8034 15.5662H40.6272C41.0401 15.5445 41.3987 15.3706 41.703 15.0446C42.0073 14.6968 42.2246 14.3056 42.355 13.8709C42.5072 13.4145 42.5832 12.9581 42.5832 12.5016C42.5832 12.067 42.5072 11.6323 42.355 11.1976C42.2246 10.7412 42.0073 10.3499 41.703 10.0239C41.3987 9.67618 41.0401 9.50231 40.6272 9.50231H29.8034ZM50.7832 9.24149C51.1961 8.19825 51.8916 7.26367 52.8697 6.43776C53.8695 5.59012 55.1301 5.15544 56.6515 5.1337H68.9096C69.5182 5.1337 70.029 5.35105 70.4419 5.78573C70.8766 6.19868 71.0939 6.70944 71.0939 7.318C71.0939 7.92657 70.8766 8.44819 70.4419 8.88288C70.029 9.29583 69.5182 9.50231 68.9096 9.50231H56.5211C56.1081 9.50231 55.7495 9.67618 55.4452 10.0239C55.1409 10.3499 54.9018 10.7412 54.728 11.1976C54.5758 11.654 54.4998 12.0887 54.4998 12.5016V18.2069C54.3694 19.511 53.6521 20.2173 52.3481 20.326C51.7395 20.326 51.207 20.1304 50.7506 19.7392C50.3159 19.3262 50.0986 18.8155 50.0986 18.2069V12.5342H50.1312C50.1312 11.4041 50.3485 10.3065 50.7832 9.24149ZM81.087 5.0685C80.2611 5.11197 79.5656 5.42712 79.0005 6.01394C78.4571 6.60077 78.0659 7.27454 77.8268 8.03524C77.5877 8.77421 77.4682 9.53491 77.4682 10.3173C77.4682 11.0998 77.5769 11.8714 77.7942 12.6321C78.0333 13.3928 78.4354 14.0665 79.0005 14.6533C79.5656 15.2184 80.2611 15.5227 81.087 15.5662H91.8455C93.2147 15.6966 93.9646 16.4464 94.095 17.8157C94.0732 18.4243 93.845 18.935 93.4103 19.348C92.9757 19.7392 92.454 19.9348 91.8455 19.9348H81.4456H79.9459C78.4245 19.8479 77.1748 19.2719 76.1967 18.2069C75.2187 17.1202 74.5123 15.8922 74.0776 14.5229C73.6647 13.1537 73.4582 11.7518 73.4582 10.3173C73.4582 9.25236 73.5777 8.19825 73.8168 7.155C74.0559 6.11175 74.4254 5.12283 74.9253 4.18826C75.4469 3.23195 76.1315 2.41691 76.9792 1.74314C77.8485 1.06938 78.8375 0.721628 79.9459 0.699893H80.5653H91.8455C93.2147 0.830299 93.9646 1.58013 94.095 2.9494C94.095 3.55796 93.8668 4.06872 93.4103 4.48167C92.9757 4.87289 92.454 5.0685 91.8455 5.0685H81.087ZM114.651 18.2069V10.3499C114.651 9.80659 114.368 9.52404 113.803 9.50231H102.393C101.98 9.52404 101.621 9.70878 101.317 10.0565C101.013 10.3825 100.784 10.7738 100.632 11.2302C100.502 11.6649 100.437 12.1104 100.437 12.5669C100.437 13.0015 100.502 13.4471 100.632 13.9035C100.784 14.3382 101.013 14.7294 101.317 15.0772C101.621 15.4032 101.98 15.5662 102.393 15.5662H110.739C111.347 15.5662 111.858 15.7835 112.271 16.2182C112.706 16.6312 112.923 17.1419 112.923 17.7505C112.923 18.3591 112.706 18.8698 112.271 19.2828C111.858 19.7175 111.347 19.9348 110.739 19.9348H102.523C101.002 19.9131 99.7411 19.4892 98.7413 18.6633C97.7633 17.8157 97.0569 16.8703 96.6222 15.827C96.2093 14.762 96.0028 13.6644 96.0028 12.5342C96.0028 11.4475 96.2202 10.3825 96.6548 9.3393C97.0895 8.27432 97.7959 7.32887 98.7739 6.50297C99.752 5.65533 101.197 5.1989 103.11 5.1337H116.803C117.411 5.1337 117.933 5.34018 118.367 5.75313C118.802 6.14435 119.03 6.64424 119.052 7.2528V18.2069C119.052 18.8155 118.824 19.3262 118.367 19.7392C117.933 20.1304 117.411 20.326 116.803 20.326C115.499 20.2173 114.781 19.511 114.651 18.2069ZM143.96 7.02459C143.96 7.56795 143.742 8.02437 143.308 8.39385C142.895 8.7416 142.384 8.91548 141.775 8.91548H127.985C127.702 8.91548 127.474 8.96982 127.3 9.07849C127.126 9.18716 126.996 9.3067 126.909 9.4371C126.822 9.54578 126.779 9.64358 126.779 9.73052C126.779 9.83919 126.822 9.95873 126.909 10.0891C126.996 10.1978 127.126 10.3065 127.3 10.4151C127.474 10.5021 127.702 10.5564 127.985 10.5782H138.646C140.015 10.5999 141.145 10.8716 142.036 11.3932C142.927 11.8931 143.558 12.4908 143.927 13.1863C144.318 13.86 144.514 14.5447 144.514 15.2402C144.514 15.9139 144.318 16.5986 143.927 17.2941C143.536 17.9678 142.895 18.5655 142.004 19.0872C141.134 19.587 140.015 19.837 138.646 19.837C138.407 19.8587 138.233 19.8696 138.124 19.8696H125.475C124.866 19.8696 124.344 19.6957 123.91 19.348C123.497 18.9785 123.29 18.5329 123.29 18.0113C123.29 17.4679 123.508 17.0115 123.942 16.642C124.355 16.2943 124.866 16.1204 125.475 16.1204H138.906C139.232 16.1422 139.493 16.0987 139.689 15.99C139.906 15.8813 140.069 15.7618 140.178 15.6314C140.287 15.501 140.341 15.3706 140.341 15.2402C140.341 15.175 140.287 15.0663 140.178 14.9142C140.069 14.7403 139.906 14.6099 139.689 14.5229C139.493 14.4143 139.232 14.3491 138.906 14.3273H128.213C126.953 14.3056 125.909 14.0448 125.083 13.5449C124.257 13.0233 123.671 12.4256 123.323 11.7518C122.975 11.078 122.801 10.4043 122.801 9.73052C122.801 9.05675 122.975 8.39385 123.323 7.74182C123.692 7.06806 124.279 6.4921 125.083 6.01394C125.909 5.51405 126.953 5.24237 128.213 5.1989C128.43 5.17717 128.593 5.1663 128.702 5.1663H141.775C142.384 5.1663 142.895 5.35105 143.308 5.72053C143.742 6.06828 143.96 6.50297 143.96 7.02459ZM155.207 0.178269C155.816 0.178269 156.337 0.384745 156.772 0.797698C157.207 1.18892 157.435 1.68881 157.457 2.29737V5.1337H168.541C169.15 5.1337 169.671 5.34018 170.106 5.75313C170.519 6.18782 170.726 6.70944 170.726 7.318C170.726 7.92657 170.508 8.44819 170.073 8.88288C169.661 9.29583 169.15 9.50231 168.541 9.50231H157.457V10.1543C157.435 11.0454 157.489 11.8714 157.62 12.6321C157.772 13.371 158.12 14.0339 158.663 14.6207C159.206 15.2076 159.891 15.5227 160.717 15.5662H168.672C169.28 15.5879 169.78 15.8161 170.171 16.2508C170.584 16.6855 170.791 17.2071 170.791 17.8157C170.769 18.4025 170.552 18.9024 170.139 19.3154C169.747 19.7066 169.258 19.9131 168.672 19.9348H159.608C158.087 19.8479 156.826 19.3371 155.827 18.4025C154.849 17.4462 154.142 16.2834 153.708 14.9142C153.295 13.5449 153.077 12.0887 153.055 10.5456V9.50231H149.306C148.698 9.50231 148.187 9.28496 147.774 8.85028C147.339 8.43732 147.122 7.92657 147.122 7.318C147.122 6.70944 147.328 6.19868 147.741 5.78573C148.176 5.35105 148.698 5.1337 149.306 5.1337H153.055V2.29737C153.077 1.71054 153.295 1.22152 153.708 0.830299C154.12 0.417347 154.62 0.200003 155.207 0.178269Z" fill="white"/>
</svg>
